<svg xmlns="http://www.w3.org/2000/svg" width="670" height="722"><defs><clipPath id="a"><path d="M0 0h670v722H0z"/></clipPath></defs><g clip-path="url(#a)"><g data-name="Group 47295" transform="translate(383 -739)"><circle cx="16" cy="16" r="16" fill="#1ac871" data-name="Ellipse 4037" opacity=".3" transform="translate(81 1031)"/><circle cx="11" cy="11" r="11" fill="#1ac871" data-name="Ellipse 4038" transform="translate(86 1036)"/><path fill="none" stroke="#fff" stroke-linecap="round" stroke-linejoin="round" stroke-width="2" d="m91.501 1047.261 3.844 3.844 6.606-6.605" data-name="Path 84656"/></g><g data-name="Group 47296" transform="translate(-215 -688)"><circle cx="16" cy="16" r="16" fill="#1aa4c8" data-name="Ellipse 4037" opacity=".3" transform="translate(731 980)"/><circle cx="11" cy="11" r="11" fill="#1aa4c8" data-name="Ellipse 4038" transform="translate(736 985)"/><g stroke="#fff" data-name="Group 47291"><path fill="none" stroke-linecap="round" stroke-width="2" d="M747 995.283v6.118" data-name="Path 84657"/><g fill="#fff" data-name="Ellipse 4039" transform="translate(746 990.601)"><circle cx="1" cy="1" r="1" stroke="none"/><circle cx="1" cy="1" r=".5" fill="none"/></g></g></g><g data-name="Group 47297" transform="translate(-163 -768)"><circle cx="16" cy="16" r="16" fill="#ff5252" data-name="Ellipse 4040" opacity=".3" transform="translate(731 1060)"/><circle cx="11" cy="11" r="11" fill="#ff5252" data-name="Ellipse 4041" transform="translate(736 1065)"/><path fill="none" stroke="#fff" stroke-linecap="round" stroke-width="2" d="m749.73 1073.5-5.233 5.232" data-name="Path 84657"/><path fill="none" stroke="#fff" stroke-linecap="round" stroke-width="2" d="m749.73 1078.73-5.232-5.233" data-name="Path 84658"/></g><g data-name="Group 47298" transform="translate(-111 -848)"><circle cx="16" cy="16" r="16" fill="#ffae04" data-name="Ellipse 4042" opacity=".3" transform="translate(731 1140)"/><circle cx="11" cy="11" r="11" fill="#ffae04" data-name="Ellipse 4043" transform="translate(736 1145)"/><path fill="none" stroke="#fff" stroke-linecap="round" stroke-width="2" d="M747 1151.283v6.118" data-name="Path 84657"/><g fill="#fff" stroke="#fff" data-name="Ellipse 4039" transform="translate(746 1159.601)"><circle cx="1" cy="1" r="1" stroke="none"/><circle cx="1" cy="1" r=".5" fill="none"/></g></g><g fill="none" stroke="#000" stroke-width=".1" data-name="Rectangle 23008"><path stroke="none" d="M20 168h128v128H20z"/><path d="M20.05 168.05h127.9v127.9H20.05z"/></g><g fill="none" stroke="#000" stroke-width=".1" data-name="Rectangle 23009"><path stroke="none" d="M168 168h128v128H168z"/><path d="M168.05 168.05h127.9v127.9h-127.9z"/></g><g fill="none" stroke="#000" stroke-width=".1" data-name="Rectangle 23007"><path stroke="none" d="M316 168h128v128H316z"/><path d="M316.05 168.05h127.9v127.9h-127.9z"/></g><g fill="none" stroke="#000" stroke-width=".1" data-name="Rectangle 23010"><path stroke="none" d="M464 156h48v48h-48z"/><path d="M464.05 156.05h47.9v47.9h-47.9z"/></g><g fill="none" stroke="#000" stroke-width=".1" data-name="Rectangle 23010"><path stroke="none" d="M532 156h48v48h-48z"/><path d="M532.05 156.05h47.9v47.9h-47.9z"/></g><g fill="none" stroke="#000" stroke-width=".1" data-name="Rectangle 23010"><path stroke="none" d="M600 156h48v48h-48z"/><path d="M600.05 156.05h47.9v47.9h-47.9z"/></g><g fill="none" stroke="#000" stroke-width=".1" data-name="Rectangle 23010"><path stroke="none" d="M464 224h48v48h-48z"/><path d="M464.05 224.05h47.9v47.9h-47.9z"/></g><g fill="none" stroke="#000" stroke-width=".1" data-name="Rectangle 24047"><path stroke="none" d="M464 344h32v32h-32z"/><path d="M464.05 344.05h31.9v31.9h-31.9z"/></g><g fill="none" stroke="#000" stroke-width=".1" data-name="Rectangle 24051"><path stroke="none" d="M464 396h32v32h-32z"/><path d="M464.05 396.05h31.9v31.9h-31.9z"/></g><g fill="none" stroke="#000" stroke-width=".1" data-name="Rectangle 24055"><path stroke="none" d="M464 448h32v32h-32z"/><path d="M464.05 448.05h31.9v31.9h-31.9z"/></g><g fill="none" stroke="#000" stroke-width=".1" data-name="Rectangle 24048"><path stroke="none" d="M516 344h32v32h-32z"/><path d="M516.05 344.05h31.9v31.9h-31.9z"/></g><g fill="none" stroke="#000" stroke-width=".1" data-name="Rectangle 24052"><path stroke="none" d="M516 396h32v32h-32z"/><path d="M516.05 396.05h31.9v31.9h-31.9z"/></g><g fill="none" stroke="#000" stroke-width=".1" data-name="Rectangle 24056"><path stroke="none" d="M516 448h32v32h-32z"/><path d="M516.05 448.05h31.9v31.9h-31.9z"/></g><g fill="none" stroke="#000" stroke-width=".1" data-name="Rectangle 24049"><path stroke="none" d="M568 344h32v32h-32z"/><path d="M568.05 344.05h31.9v31.9h-31.9z"/></g><g fill="none" stroke="#000" stroke-width=".1" data-name="Rectangle 24053"><path stroke="none" d="M568 396h32v32h-32z"/><path d="M568.05 396.05h31.9v31.9h-31.9z"/></g><g fill="none" stroke="#000" stroke-width=".1" data-name="Rectangle 24057"><path stroke="none" d="M568 448h32v32h-32z"/><path d="M568.05 448.05h31.9v31.9h-31.9z"/></g><g fill="none" stroke="#000" stroke-width=".1" data-name="Rectangle 24050"><path stroke="none" d="M620 344h32v32h-32z"/><path d="M620.05 344.05h31.9v31.9h-31.9z"/></g><g fill="none" stroke="#000" stroke-width=".1" data-name="Rectangle 24054"><path stroke="none" d="M620 396h32v32h-32z"/><path d="M620.05 396.05h31.9v31.9h-31.9z"/></g><g fill="none" stroke="#000" stroke-width=".1" data-name="Rectangle 24058"><path stroke="none" d="M620 448h32v32h-32z"/><path d="M620.05 448.05h31.9v31.9h-31.9z"/></g><g fill="none" stroke="#000" stroke-width=".1" data-name="Rectangle 23010"><path stroke="none" d="M532 224h48v48h-48z"/><path d="M532.05 224.05h47.9v47.9h-47.9z"/></g><g fill="none" stroke="#000" stroke-width=".1" data-name="Rectangle 23010"><path stroke="none" d="M600 224h48v48h-48z"/><path d="M600.05 224.05h47.9v47.9h-47.9z"/></g><g data-name="Group 47276"><path fill="none" d="M20 316h256v128H20z" data-name="Rectangle 23011"/><g data-name="Group 47273"><g data-name="Group 31267" opacity=".34"><g data-name="Group 31266"><g data-name="Group 31256" opacity=".6"><path fill="#1aa4c8" d="M207.848 394.321a28.807 28.807 0 0 1-13.482 31.369 30.631 30.631 0 0 1-7.178 2.963c-.41.654-.854 1.286-1.326 1.9h21.462a40.552 40.552 0 0 0 8.893-30.179 44.089 44.089 0 0 0-10.8-23.94 20.5 20.5 0 0 0-.215 1.413c-.646 5.628 1.422 11.073 2.646 16.474Z" data-name="Path 71039"/></g><g data-name="Group 31257" opacity=".41"><path fill="#1aa4c8" d="M141.402 429.243c-1.259-1.74-2.244-3.957-3.58-5.734-2.86.582-5.684 1.43-8.541 2.162a76.81 76.81 0 0 1-17.9 2.695c-6.7.092-13.537-1.2-19.367-4.644a25.767 25.767 0 0 1-10.469-11.43 35 35 0 0 0 7.023 18.26h53.849q-.528-.637-1.015-1.309Z" data-name="Path 71040"/></g><g data-name="Group 31258" opacity=".41"><path fill="#1aa4c8" d="M149.892 338.592c1.629-.056 3.38-.153 5.29-.3 8.916-.675 17.749 1.357 26.313 4.162q1.239.406 2.464.873a33.14 33.14 0 0 0-13.566-9.006 38.469 38.469 0 0 0-31.684 3.451 81.361 81.361 0 0 1 11.183.82Z" data-name="Path 71041"/></g><g data-name="Group 31259" opacity=".35"><path fill="#1aa4c8" d="M91.796 423.789c5.813 3.366 12.641 4.652 19.345 4.6a79.1 79.1 0 0 0 17.913-2.521c2.86-.7 5.688-1.5 8.551-2.053a6.881 6.881 0 0 0-4.759-2.97c-8.3-.987-17.041 2.436-25.308 3.017-5.555.391-11.455-.362-15.944-3.683a20.909 20.909 0 0 1-6.486-8.6 30 30 0 0 1-.547-21.945c1.718-4.79 5.893-8.429 7.353-13.309 1.22-4.076-.194-8.331.2-12.45a11.633 11.633 0 0 1 .508-2.5c1.43-4.38 8.3-10.707 12.505-12.821a72.9 72.9 0 0 1 31.348-7.784c-6.1-1.021-11.877-2.856-22.107-5.029-12.15-2.581-25.8 6.336-32.969 16.708a24.64 24.64 0 0 0-1.927 3.318 26.4 26.4 0 0 0-2.03 16.666c1.351 6.547 5.529 11.592 4.036 18.562a121.352 121.352 0 0 0-1.619 12.386 17.668 17.668 0 0 0 1.523 9.284 25.281 25.281 0 0 0 10.414 11.124Z" data-name="Path 71042"/></g><g data-name="Group 31260" opacity=".47"><path fill="#1aa4c8" d="M155.182 338.294c-1.911.145-3.662.242-5.291.3a96.6 96.6 0 0 1 16.66 3.938l20.794 6.839a22.715 22.715 0 0 1 15.641 22.85c0 .067-.008.135-.012.2a34.184 34.184 0 0 1-5.653 16.681c-2.969 4.43-7.066 9.386-8.092 14.823-.817 4.333.948 8.713 1.163 13.122a19.975 19.975 0 0 1-3.2 11.607 30.63 30.63 0 0 0 7.178-2.963 28.807 28.807 0 0 0 13.482-31.369c-1.223-5.4-3.289-10.846-2.648-16.474a20.5 20.5 0 0 1 .215-1.413c.634-3.423 1.986-6.768 1.7-10.227a16.373 16.373 0 0 0-2.776-7.279c-4.672-7.347-12.208-12.486-20.377-15.6q-1.224-.466-2.464-.873c-8.571-2.805-17.403-4.837-26.32-4.162Z" data-name="Path 71043"/></g><g data-name="Group 31261" opacity=".7"><path fill="#1aa4c8" d="M92.532 359.301a12.341 12.341 0 0 0-.5 2.584c-.378 4.254 1.057 8.637-.143 12.851-1.436 5.044-5.592 8.821-7.286 13.773a31.888 31.888 0 0 0 .657 22.647 21.515 21.515 0 0 0 6.528 8.838c4.506 3.4 10.41 4.151 15.963 3.72 8.264-.643 16.984-4.22 25.292-3.244a6.857 6.857 0 0 1 4.773 3.04c1.336 1.777 2.321 3.994 3.58 5.734q.486.672 1.015 1.309h43.445a23.73 23.73 0 0 0 1.326-1.9 19.976 19.976 0 0 0 3.2-11.607c-.215-4.41-1.98-8.79-1.163-13.122 1.026-5.438 5.123-10.393 8.092-14.823a34.184 34.184 0 0 0 5.653-16.681c0-.067.008-.135.012-.2a22.715 22.715 0 0 0-15.628-22.852l-20.8-6.838a96.6 96.6 0 0 0-16.66-3.938 81.363 81.363 0 0 0-11.183-.819c-.81 0-1.619.011-2.428.035a71.1 71.1 0 0 0-31.308 8.195c-4.194 2.204-11.029 8.77-12.437 13.298Z" data-name="Path 71044"/></g><g data-name="Group 31262" opacity=".35" transform="translate(127.55 329)"><circle cx="3.381" cy="3.381" r="3.381" fill="#1aa4c8" data-name="Ellipse 3885"/></g><g data-name="Group 31263" opacity=".35" transform="translate(214.672 364.957)"><circle cx="7.635" cy="7.635" r="7.635" fill="#1aa4c8" data-name="Ellipse 3886"/></g><g data-name="Group 31264" opacity=".35" transform="translate(58.522 376.468)"><circle cx="7.635" cy="7.635" r="7.635" fill="#1aa4c8" data-name="Ellipse 3887" transform="rotate(-39.719 13.508 4.879)"/></g><g data-name="Group 31265" opacity=".35" transform="translate(188.255 337.19)"><circle cx="2.319" cy="2.319" r="2.319" fill="#1aa4c8" data-name="Ellipse 3888"/></g></g></g><path fill="#333" d="M131.668 423.387h-1.081l-2.174-3.637h-.022v3.633h-1.081v-5.388h1.081l2.174 3.633h.022v-3.63h1.081Zm.744-2.041a2.151 2.151 0 0 1 .5-1.469 1.743 1.743 0 0 1 1.385-.572 1.761 1.761 0 0 1 1.393.57 2.139 2.139 0 0 1 .5 1.47v.078a2.142 2.142 0 0 1-.5 1.472 1.754 1.754 0 0 1-1.387.569 1.759 1.759 0 0 1-1.391-.569 2.142 2.142 0 0 1-.5-1.472Zm1.078.078a1.743 1.743 0 0 0 .193.88.665.665 0 0 0 .622.331.658.658 0 0 0 .613-.333 1.732 1.732 0 0 0 .194-.878v-.079a1.714 1.714 0 0 0-.2-.87.664.664 0 0 0-.619-.337.656.656 0 0 0-.613.339 1.73 1.73 0 0 0-.194.869Zm2.189-2.826v.085h-.859l-.519-.493-.515.493h-.841v-.1l1.044-.889h.626Zm-.77 6.133h-1.211v-.893h1.211Zm5.566-3.236a2.3 2.3 0 0 1-.411 1.43 1.36 1.36 0 0 1-1.148.541 1.283 1.283 0 0 1-.559-.117 1.149 1.149 0 0 1-.419-.343v1.922h-1.078v-5.548h.974l.063.474a1.284 1.284 0 0 1 .428-.406 1.157 1.157 0 0 1 .583-.143 1.334 1.334 0 0 1 1.156.581 2.6 2.6 0 0 1 .411 1.531Zm-1.081-.078a1.939 1.939 0 0 0-.189-.919.616.616 0 0 0-.578-.352.817.817 0 0 0-.417.1.714.714 0 0 0-.272.285v1.756a.663.663 0 0 0 .272.259.917.917 0 0 0 .424.089.622.622 0 0 0 .576-.307 1.623 1.623 0 0 0 .183-.833Zm5.311 1.219a.6.6 0 0 0 .448-.169.612.612 0 0 0 .167-.45h.985l.007.022a1.254 1.254 0 0 1-.452 1.017 1.69 1.69 0 0 1-1.156.409 1.708 1.708 0 0 1-1.374-.569 2.161 2.161 0 0 1-.485-1.454v-.111a2.175 2.175 0 0 1 .483-1.454 1.693 1.693 0 0 1 1.369-.572 1.653 1.653 0 0 1 1.181.422 1.411 1.411 0 0 1 .433 1.111l-.007.022h-.985a.8.8 0 0 0-.165-.517.554.554 0 0 0-.457-.206.617.617 0 0 0-.594.335 1.838 1.838 0 0 0-.176.857v.111a1.831 1.831 0 0 0 .176.863.626.626 0 0 0 .603.333Zm4.6.752a2.275 2.275 0 0 1-.1-.289 2.009 2.009 0 0 1-.061-.311 1.482 1.482 0 0 1-.441.485 1.1 1.1 0 0 1-.652.193 1.353 1.353 0 0 1-.97-.324 1.161 1.161 0 0 1-.341-.883 1.057 1.057 0 0 1 .454-.913 2.266 2.266 0 0 1 1.324-.324h.607v-.319a.624.624 0 0 0-.152-.448.6.6 0 0 0-.452-.159.587.587 0 0 0-.406.128.446.446 0 0 0-.143.35h-1.041l-.007-.022a1.016 1.016 0 0 1 .443-.876 1.922 1.922 0 0 1 1.224-.369 1.794 1.794 0 0 1 1.169.363 1.264 1.264 0 0 1 .446 1.041v1.656a3.132 3.132 0 0 0 .043.53 2.658 2.658 0 0 0 .135.493Zm-.989-.722a.921.921 0 0 0 .5-.141.758.758 0 0 0 .3-.326v-.567h-.607a.72.72 0 0 0-.52.17.56.56 0 0 0-.176.419.418.418 0 0 0 .131.324.52.52 0 0 0 .373.12Zm-.2-4.907h.889l1.1.937-.007.022h-.97l-.567-.53-.559.53h-.974l-.007-.022Zm2.2-.681h1l-.793 1h-.748Zm4.311 4.419a2.3 2.3 0 0 1-.411 1.43 1.36 1.36 0 0 1-1.148.541 1.283 1.283 0 0 1-.559-.117 1.149 1.149 0 0 1-.419-.343v1.922h-1.078v-5.548h.974l.063.474a1.284 1.284 0 0 1 .428-.406 1.157 1.157 0 0 1 .583-.143 1.334 1.334 0 0 1 1.156.581 2.6 2.6 0 0 1 .411 1.53Zm-1.081-.078a1.939 1.939 0 0 0-.189-.919.616.616 0 0 0-.578-.352.817.817 0 0 0-.417.1.714.714 0 0 0-.272.285v1.756a.663.663 0 0 0 .272.259.917.917 0 0 0 .424.089.622.622 0 0 0 .576-.307 1.623 1.623 0 0 0 .183-.833Zm4.933-3.019v.981h.678v.759h-.678v2.041a.466.466 0 0 0 .1.333.345.345 0 0 0 .257.1 1.032 1.032 0 0 0 .148-.009 1.247 1.247 0 0 0 .144-.031l.089.781a2.189 2.189 0 0 1-.317.083 1.888 1.888 0 0 1-.335.028 1.153 1.153 0 0 1-.861-.307 1.348 1.348 0 0 1-.3-.974v-2.044h-.585v-.759h.585v-.981Zm3.452 1.911-.4-.011a.72.72 0 0 0-.4.1.634.634 0 0 0-.237.281v2.707h-1.078v-4.007h1l.048.593a1.264 1.264 0 0 1 .365-.491.813.813 0 0 1 .517-.176.808.808 0 0 1 .15.013q.069.013.139.031Zm2.23 3.156a1.8 1.8 0 0 1-1.4-.55 2.016 2.016 0 0 1-.5-1.417v-.148a2.194 2.194 0 0 1 .489-1.474 1.662 1.662 0 0 1 1.344-.57 1.556 1.556 0 0 1 1.239.494 1.954 1.954 0 0 1 .431 1.332v.559h-2.389l-.011.022a1.083 1.083 0 0 0 .25.667.837.837 0 0 0 .665.256 2.225 2.225 0 0 0 .617-.074 2.516 2.516 0 0 0 .524-.226l.293.667a2.007 2.007 0 0 1-.652.33 2.891 2.891 0 0 1-.896.13Zm-.07-3.326a.6.6 0 0 0-.5.224 1.124 1.124 0 0 0-.213.594l.007.019h1.319v-.081a.936.936 0 0 0-.144-.554.534.534 0 0 0-.465-.204Zm1.293-1.544v.085h-.859l-.519-.493-.515.493h-.841v-.1l1.044-.889h.626Zm2 .785.048.574a1.466 1.466 0 0 1 .493-.478 1.279 1.279 0 0 1 .656-.17 1.192 1.192 0 0 1 .948.391 1.852 1.852 0 0 1 .341 1.235v2.456h-1.085v-2.452a.959.959 0 0 0-.15-.609.553.553 0 0 0-.45-.18.944.944 0 0 0-.424.091.828.828 0 0 0-.3.25v2.9h-1.086v-4.007Z" data-name="App Features"/><g data-name="Group 31255"><g data-name="Group 31211"><g data-name="Group 31195" transform="translate(49.805 398.027)"><g data-name="Group 31194"><rect width="37.158" height="27.024" fill="#1aa4c8" data-name="Rectangle 18458" rx="13.512" transform="rotate(-.12 227.472 -189.793)"/><path fill="#233863" d="M4.5 27.899a4.466 4.466 0 0 1-4.461-4.451L0 4.531A4.466 4.466 0 0 1 4.451.061L33.502 0h.009a4.466 4.466 0 0 1 4.461 4.451l.04 18.917a4.472 4.472 0 0 1-4.451 4.47l-29.051.061Zm29.06-.468ZM33.511.814h-.007L4.453.875A3.651 3.651 0 0 0 .814 4.53l.039 18.917A3.651 3.651 0 0 0 4.5 27.086h.008l29.051-.061a3.659 3.659 0 0 0 3.639-3.654l-.04-18.917a3.651 3.651 0 0 0-3.647-3.64Z" data-name="Path 70961"/></g><rect width="37.158" height="27.024" fill="#233863" data-name="Rectangle 18459" opacity=".24" rx="13.512" transform="rotate(-.12 227.472 -189.793)"/></g><g data-name="Group 31205"><g data-name="Group 31197"><g data-name="Group 31196" transform="translate(67.425 373.65)"><rect width="18.415" height="24.687" fill="#fff" data-name="Rectangle 18460" rx="1.277" transform="rotate(43.793 8.347 21.713)"/><path fill="#233863" d="M13.546 31.087a.748.748 0 0 1-.521-.21L.232 18.617a.754.754 0 0 1-.022-1.066L16.81.231a.754.754 0 0 1 1.066-.022l12.792 12.264a.754.754 0 0 1 .022 1.066l-16.6 17.319a.748.748 0 0 1-.528.232Zm.042-.8ZM.839 18.065l12.705 12.181 16.521-17.232L17.36.833Z" data-name="Path 70962"/></g><path fill="#ffce55" d="M94.038 386.812a.271.271 0 0 1-.188-.075l-4.816-4.617a.271.271 0 1 1 .376-.391l4.816 4.617a.271.271 0 0 1-.188.467Z" data-name="Path 70963"/><path fill="#233863" d="M91.618 389.99a.271.271 0 0 1-.188-.075l-9.632-9.235a.272.272 0 0 1 .376-.392l9.632 9.235a.271.271 0 0 1-.188.467Z" data-name="Path 70964"/><path fill="#233863" d="M88.478 393.265a.271.271 0 0 1-.188-.075l-9.632-9.235a.272.272 0 0 1 .376-.392l9.632 9.235a.271.271 0 0 1-.188.467Z" data-name="Path 70965"/><path fill="#233863" d="M85.525 396.347a.27.27 0 0 1-.188-.075l-9.633-9.235a.271.271 0 1 1 .376-.391l9.633 9.235a.271.271 0 0 1-.188.467Z" data-name="Path 70966"/><path fill="#233863" d="M82.383 399.623a.27.27 0 0 1-.188-.076l-9.633-9.235a.271.271 0 0 1 .376-.391l9.633 9.235a.271.271 0 0 1-.188.467Z" data-name="Path 70967"/></g><g data-name="Group 31200"><g data-name="Group 31198" transform="translate(48 382.316)"><rect width="18.415" height="24.687" fill="#fff" data-name="Rectangle 18461" rx="1.277" transform="rotate(-22.221 18.65 2.864)"/><path fill="#233863" d="M9.828 30.42a.755.755 0 0 1-.7-.469L.054 7.739a.753.753 0 0 1 .413-.983l16.405-6.7a.755.755 0 0 1 .982.412l9.074 22.212a.755.755 0 0 1-.412.982l-16.406 6.7a.749.749 0 0 1-.282.058Zm-9-22.932 9.028 22.1 16.294-6.656-9.029-22.1Zm25.532 15.8Zm-.154-.377Z" data-name="Path 70968"/></g><path fill="#233863" d="M62.705 391.176a.271.271 0 0 1-.1-.522l2.821-1.153a.271.271 0 0 1 .205.5l-2.821 1.153a.273.273 0 0 1-.105.022Z" data-name="Path 70969"/><path fill="#233863" d="M54.888 399.271a.271.271 0 0 1-.1-.522l12.353-5.046a.271.271 0 1 1 .205.5l-12.353 5.047a.272.272 0 0 1-.105.021Z" data-name="Path 70970"/><path fill="#ffce55" d="M63.497 399.087a.271.271 0 0 1-.1-.522l4.91-2.006a.271.271 0 1 1 .205.5l-4.91 2.006a.268.268 0 0 1-.105.022Z" data-name="Path 70971"/><path fill="#ffce55" d="M56.056 402.129a.271.271 0 0 1-.1-.522l3.006-1.228a.271.271 0 1 1 .205.5l-3.006 1.228a.268.268 0 0 1-.105.022Z" data-name="Path 70972"/><path fill="#233863" d="M57.025 405.461a.271.271 0 0 1-.1-.522l7.609-3.108a.271.271 0 1 1 .205.5l-7.609 3.108a.267.267 0 0 1-.105.022Z" data-name="Path 70973"/><g data-name="Group 31199" transform="translate(50.679 384.884)"><rect width="8.237" height="8.757" fill="#ffce55" data-name="Rectangle 18462" rx="2.004" transform="rotate(-23.44 8.178 1.445)"/><path fill="#233863" d="M3.865 11.51a.817.817 0 0 1-.748-.491L.068 3.982A.815.815 0 0 1 .492 2.91L7.052.068a.816.816 0 0 1 1.072.424l3.049 7.037a.815.815 0 0 1-.424 1.072l-6.56 2.842a.813.813 0 0 1-.324.067ZM7.375.543a.272.272 0 0 0-.108.022L.707 3.407a.273.273 0 0 0-.142.358l3.049 7.037a.273.273 0 0 0 .358.142l6.56-2.842a.273.273 0 0 0 .142-.358L7.625.707a.273.273 0 0 0-.25-.166Zm3.265 7.808Z" data-name="Path 70974"/></g><path fill="#233863" d="M54.323 389.508a.643.643 0 0 1-.589-.387l-.358-.825a.136.136 0 0 1 .249-.108l.358.825a.37.37 0 0 0 .487.193l.06-.026a.287.287 0 0 0 .149-.376l-.9-2.089a.3.3 0 0 0-.389-.154l-.1.045a.314.314 0 0 0-.163.413l.022.051a.136.136 0 0 1-.249.109l-.023-.052a.586.586 0 0 1 .3-.77l.1-.045a.569.569 0 0 1 .745.295l.9 2.089a.559.559 0 0 1-.29.733l-.06.026a.638.638 0 0 1-.249.053Z" data-name="Path 70975"/><path fill="#fff" d="M58.171 386.425a.576.576 0 1 1-.815-.008.576.576 0 0 1 .815.008Z" data-name="Path 70976"/></g><g data-name="Group 31202"><g data-name="Group 31201" transform="translate(80.293 346.633)"><rect width="18.415" height="24.687" fill="#fff" data-name="Rectangle 18463" rx="1.277" transform="rotate(-23.003 18.569 3.013)"/><path fill="#233863" d="M10.129 30.519a.755.755 0 0 1-.693-.459L.06 7.974a.755.755 0 0 1 .4-.988L16.773.06a.753.753 0 0 1 .988.4l9.376 22.086a.753.753 0 0 1-.4.988l-16.312 6.925a.753.753 0 0 1-.296.06ZM.829 7.712l9.329 21.975 16.2-6.878L17.029.833Z" data-name="Path 70977"/></g><path fill="#233863" d="M95.016 355.527a.271.271 0 0 1-.106-.521l2.805-1.191a.272.272 0 0 1 .212.5l-2.805 1.191a.271.271 0 0 1-.106.021Z" data-name="Path 70978"/><path fill="#233863" d="M87.306 363.727a.271.271 0 0 1-.106-.521l12.283-5.215a.272.272 0 1 1 .212.5l-12.282 5.214a.271.271 0 0 1-.107.022Z" data-name="Path 70979"/><path fill="#ffce55" d="M95.914 363.426a.271.271 0 0 1-.106-.521l4.882-2.073a.272.272 0 1 1 .212.5l-4.883 2.073a.269.269 0 0 1-.105.021Z" data-name="Path 70980"/><path fill="#ffce55" d="M88.513 366.569a.271.271 0 0 1-.106-.521l2.989-1.269a.272.272 0 0 1 .212.5l-2.989 1.269a.27.27 0 0 1-.106.021Z" data-name="Path 70981"/><path fill="#233863" d="M89.528 369.887a.271.271 0 0 1-.106-.521l7.566-3.212a.272.272 0 0 1 .212.5l-7.566 3.212a.269.269 0 0 1-.106.021Z" data-name="Path 70982"/></g><g data-name="Group 31204"><g data-name="Group 31203" transform="translate(63.309 383.87)"><rect width="18.415" height="24.687" fill="#1aa4c8" data-name="Rectangle 18464" rx="1.277" transform="rotate(8.62 -.35 27.106)"/><path fill="#233863" d="M18.276 27.888a.778.778 0 0 1-.114-.008L.641 25.221a.753.753 0 0 1-.632-.858L3.609.641a.754.754 0 0 1 .858-.632l17.522 2.658a.754.754 0 0 1 .632.858l-3.6 23.722a.754.754 0 0 1-.744.64ZM.822 24.425l17.4 2.64 3.581-23.6-17.4-2.64Z" data-name="Path 70983"/></g><path fill="#fff" d="M73.339 388.509a.261.261 0 0 1-.041 0l-3.364-.51a.271.271 0 1 1 .082-.536l3.363.51a.271.271 0 0 1-.04.539Z" data-name="Path 70984"/><path fill="#233863" d="M82.07 393.479h-.041l-3.862-.586a.271.271 0 1 1 .082-.536l3.862.586a.271.271 0 0 1-.04.539Z" data-name="Path 70985"/><path fill="#fff" d="M75.474 392.474a.264.264 0 0 1-.041 0l-6.6-1a.271.271 0 0 1 .082-.536l6.6 1a.271.271 0 0 1-.041.539Z" data-name="Path 70986"/><path fill="#233863" d="M75.713 397.103a.261.261 0 0 1-.041 0l-7.516-1.14a.271.271 0 0 1 .082-.536l7.516 1.14a.271.271 0 0 1-.04.54Z" data-name="Path 70987"/><path fill="#fff" d="M80.749 402.183a.266.266 0 0 1-.041 0l-13.193-2a.271.271 0 1 1 .082-.536l13.193 2a.271.271 0 0 1-.041.539Z" data-name="Path 70988"/><path fill="#fff" d="M74.294 405.795a.269.269 0 0 1-.041 0l-7.419-1.126a.271.271 0 1 1 .082-.536l7.419 1.125a.271.271 0 0 1-.041.54Z" data-name="Path 70989"/></g></g><g data-name="Group 31210"><g data-name="Group 31206"><path fill="#fff" d="m84.437 428.833-31.2.065a2.989 2.989 0 0 1-2.987-2.974l-.044-21.063a2.99 2.99 0 0 1 2.974-2.987l31.2-.065a2.99 2.99 0 0 1 2.987 2.974l.044 21.063a2.99 2.99 0 0 1-2.974 2.987Z" data-name="Path 70990"/><path fill="#233863" d="M53.234 429.17a3.261 3.261 0 0 1-3.252-3.245l-.044-21.063a3.261 3.261 0 0 1 3.245-3.259l31.2-.065h.007a3.256 3.256 0 0 1 3.252 3.245l.044 21.063a3.255 3.255 0 0 1-3.245 3.258l-31.2.066Zm31.153-27.09h-.006l-31.2.065a2.718 2.718 0 0 0-2.7 2.715l.044 21.063a2.718 2.718 0 0 0 2.709 2.7h.006l31.2-.066a2.712 2.712 0 0 0 2.7-2.715l-.044-21.054a2.713 2.713 0 0 0-2.709-2.707Z" data-name="Path 70991"/></g><g data-name="Group 31207"><path fill="#1aa4c8" d="m84.693 396.742-7.869.017a2.66 2.66 0 0 0-2.647 2.658l.008 3.766-19.93.042a4.066 4.066 0 0 0-4.045 4.062l.04 18.917a4.066 4.066 0 0 0 4.062 4.045l29.051-.061a4.066 4.066 0 0 0 4.045-4.062l-.039-18.529v-.388l-.016-7.819a2.661 2.661 0 0 0-2.66-2.648Z" data-name="Path 70992"/><path fill="#233863" d="M54.303 430.655a4.466 4.466 0 0 1-4.461-4.451l-.04-18.917a4.466 4.466 0 0 1 4.451-4.47l19.524-.041-.007-3.359a3.068 3.068 0 0 1 3.053-3.066l7.869-.016h.007a3.063 3.063 0 0 1 3.06 3.053l.056 26.736a4.466 4.466 0 0 1-4.451 4.47l-29.051.061Zm30.391-33.506-7.868.016a2.254 2.254 0 0 0-2.241 2.251l.008 3.766a.407.407 0 0 1-.406.408l-19.93.042a3.651 3.651 0 0 0-3.639 3.654l.04 18.917a3.651 3.651 0 0 0 3.647 3.639h.007l29.051-.061a3.651 3.651 0 0 0 3.639-3.654l-.056-26.736a2.248 2.248 0 0 0-2.246-2.241Zm0-.407Z" data-name="Path 70993"/></g><path fill="#fff" d="m84.419 399.759-7.041.015a2.381 2.381 0 0 0-2.369 2.379l.007 3.37-17.833.037a3.638 3.638 0 0 0-3.619 3.635l.036 16.929a3.638 3.638 0 0 0 3.635 3.62l25.993-.055a3.638 3.638 0 0 0 3.619-3.635l-.035-16.583v-.347l-.015-7a2.381 2.381 0 0 0-2.378-2.365Z" data-name="Path 70994" opacity=".12"/><path fill="#fff" d="M84.828 426.287a1.325 1.325 0 1 1-1.325-1.325 1.325 1.325 0 0 1 1.325 1.325Z" data-name="Path 70995"/><path fill="#fff" d="M85.755 403.894a.271.271 0 0 1-.271-.271v-3.606a1.152 1.152 0 0 0-1.2-1.1h-2.627a.272.272 0 1 1 0-.543h2.627a1.694 1.694 0 0 1 1.739 1.64v3.606a.271.271 0 0 1-.268.274Z" data-name="Path 70996"/></g></g><g data-name="Group 31222"><g data-name="Group 31214" transform="translate(210.264 398.028)"><g data-name="Group 31212"><rect width="37.158" height="27.024" fill="#1aa4c8" data-name="Rectangle 18465" rx="13.512" transform="rotate(-.12 227.472 -189.793)"/><path fill="#233863" d="M4.5 27.899a4.473 4.473 0 0 1-4.46-4.451L0 4.531A4.466 4.466 0 0 1 4.451.061L33.502 0h.009a4.466 4.466 0 0 1 4.461 4.451l.04 18.917a4.466 4.466 0 0 1-4.451 4.47l-29.051.061Zm29.06-.468ZM33.511.814h-.007L4.453.875A3.652 3.652 0 0 0 .814 4.53l.04 18.917a3.659 3.659 0 0 0 3.647 3.639h.008l29.051-.061a3.659 3.659 0 0 0 3.639-3.654l-.04-18.917a3.651 3.651 0 0 0-3.648-3.64Z" data-name="Path 71000"/></g><g data-name="Group 31213"><rect width="37.158" height="27.024" fill="#ffce55" data-name="Rectangle 18466" rx="13.512" transform="rotate(-.12 227.472 -189.793)"/><path fill="#233863" d="M4.5 27.899a4.473 4.473 0 0 1-4.46-4.451L0 4.531A4.466 4.466 0 0 1 4.451.061L33.502 0h.009a4.466 4.466 0 0 1 4.461 4.451l.04 18.917a4.466 4.466 0 0 1-4.451 4.47l-29.051.061Zm29.06-.468ZM33.511.814h-.007L4.453.875A3.652 3.652 0 0 0 .814 4.53l.04 18.917a3.659 3.659 0 0 0 3.647 3.639h.008l29.051-.061a3.659 3.659 0 0 0 3.639-3.654l-.04-18.917a3.651 3.651 0 0 0-3.648-3.64Z" data-name="Path 71001"/></g><rect width="37.158" height="27.024" fill="#233863" data-name="Rectangle 18467" opacity=".24" rx="13.512" transform="rotate(-.12 227.472 -189.793)"/></g><g data-name="Group 31217"><g data-name="Group 31215" transform="translate(210.397 399.85)"><rect width="37.158" height="27.024" fill="#fff" data-name="Rectangle 18468" rx="10.987" transform="rotate(-.12 163.903 -126.357)"/><path fill="#233863" d="M3.291 27.632a3.255 3.255 0 0 1-3.252-3.245L-.005 3.324A3.255 3.255 0 0 1 3.24.065L34.44 0h.007a3.255 3.255 0 0 1 3.252 3.245l.044 21.063a3.256 3.256 0 0 1-3.245 3.259l-31.2.065Zm31.2-.608a2.713 2.713 0 0 0 2.7-2.715l-.044-21.063a2.713 2.713 0 0 0-2.709-2.7h-.006l-31.2.065a2.712 2.712 0 0 0-2.7 2.715l.044 21.063a2.713 2.713 0 0 0 2.709 2.7h.006Z" data-name="Path 71002"/></g><g data-name="Group 31216"><path fill="#fff" d="m244.896 428.834-31.2.065a2.989 2.989 0 0 1-2.987-2.974l-.044-21.063a2.99 2.99 0 0 1 2.974-2.987l31.2-.065a2.989 2.989 0 0 1 2.987 2.974l.044 21.063a2.989 2.989 0 0 1-2.974 2.987Z" data-name="Path 71003"/><path fill="#233863" d="M213.688 429.171a3.256 3.256 0 0 1-3.252-3.245l-.044-21.063a3.261 3.261 0 0 1 3.245-3.259l31.2-.065h.007a3.256 3.256 0 0 1 3.252 3.245l.044 21.063a3.256 3.256 0 0 1-3.245 3.258l-31.2.066Zm31.153-27.09h-.006l-31.2.065a2.718 2.718 0 0 0-2.7 2.715l.044 21.063a2.713 2.713 0 0 0 2.709 2.7h.006l31.2-.066a2.712 2.712 0 0 0 2.7-2.715l-.044-21.063a2.713 2.713 0 0 0-2.704-2.698Z" data-name="Path 71004"/></g></g><g data-name="Group 31221"><g data-name="Group 31218"><path fill="#ffce55" d="m245.151 396.743-7.869.017a2.661 2.661 0 0 0-2.647 2.658l.008 3.766-19.93.042a4.065 4.065 0 0 0-4.045 4.062l.04 18.917a4.066 4.066 0 0 0 4.062 4.045l29.051-.061a4.065 4.065 0 0 0 4.045-4.062l-.039-18.529v-.388l-.016-7.819a2.661 2.661 0 0 0-2.66-2.648Z" data-name="Path 71005"/><path fill="#233863" d="M214.762 430.656a4.465 4.465 0 0 1-4.461-4.451l-.04-18.917a4.466 4.466 0 0 1 4.451-4.47l19.523-.041-.007-3.359a3.068 3.068 0 0 1 3.053-3.066l7.869-.016h.007a3.067 3.067 0 0 1 3.059 3.053l.056 26.736a4.472 4.472 0 0 1-4.451 4.47l-29.051.061Zm30.392-33.506-7.869.016a2.253 2.253 0 0 0-2.241 2.251l.008 3.766a.407.407 0 0 1-.406.408l-19.93.042a3.651 3.651 0 0 0-3.639 3.654l.04 18.917a3.651 3.651 0 0 0 3.647 3.639h.007l29.051-.061a3.658 3.658 0 0 0 3.639-3.654l-.056-26.736a2.253 2.253 0 0 0-2.245-2.241Zm0-.407Z" data-name="Path 71006"/></g><path fill="#fff" d="m244.801 399.76-7.041.015a2.381 2.381 0 0 0-2.369 2.379l.007 3.37-17.833.037a3.638 3.638 0 0 0-3.619 3.635l.036 16.929a3.638 3.638 0 0 0 3.635 3.62l25.993-.055a3.638 3.638 0 0 0 3.619-3.635l-.035-16.583v-.347l-.015-7a2.381 2.381 0 0 0-2.378-2.365Z" data-name="Path 71007" opacity=".12"/><path fill="#fff" d="M245.211 426.288a1.325 1.325 0 1 1-1.325-1.325 1.325 1.325 0 0 1 1.325 1.325Z" data-name="Path 71008"/><path fill="#fff" d="M246.137 403.895a.271.271 0 0 1-.271-.271v-3.606a1.151 1.151 0 0 0-1.2-1.1h-2.628a.272.272 0 1 1 0-.543h2.628a1.694 1.694 0 0 1 1.739 1.64v3.606a.271.271 0 0 1-.268.274Z" data-name="Path 71009"/></g></g><g data-name="Group 31249"><g data-name="Group 31225"><g data-name="Group 31223" transform="translate(195.1 364.297)"><rect width="17.214" height="23.076" fill="#fff" data-name="Rectangle 18469" rx="1.277" transform="rotate(35.8 6.464 21.436)"/><path fill="#233863" d="M14.153 29.324a.749.749 0 0 1-.439-.142l-13.4-9.66a.755.755 0 0 1-.171-1.052L13.228.313a.754.754 0 0 1 1.051-.171l13.4 9.66a.755.755 0 0 1 .171 1.051L14.762 29.011a.749.749 0 0 1-.491.3.774.774 0 0 1-.118.013Zm.037-.8ZM.837 18.9l13.3 9.589 13.017-18.06L13.854.84Z" data-name="Path 71013"/></g><g data-name="Group 31224" transform="translate(195.1 364.297)"><rect width="17.214" height="23.076" fill="#1aa4c8" data-name="Rectangle 18470" rx="1.277" transform="rotate(35.8 6.464 21.436)"/><path fill="#233863" d="M14.153 29.324a.749.749 0 0 1-.439-.142l-13.4-9.66a.755.755 0 0 1-.171-1.052L13.228.313a.754.754 0 0 1 1.051-.171l13.4 9.66a.755.755 0 0 1 .171 1.051L14.762 29.011a.749.749 0 0 1-.491.3.774.774 0 0 1-.118.013Zm.037-.8ZM.837 18.9l13.3 9.589 13.017-18.06L13.854.84Z" data-name="Path 71014"/></g><path fill="#233863" d="M217.257 378.577a.27.27 0 0 1-.158-.051l-2.311-1.666a.271.271 0 0 1 .317-.44l2.311 1.666a.271.271 0 0 1-.159.491Z" data-name="Path 71015"/><path fill="#233863" d="M214.782 382.017a.272.272 0 0 1-.158-.051l-10.119-7.293a.271.271 0 1 1 .317-.44l10.119 7.293a.271.271 0 0 1-.159.492Z" data-name="Path 71016"/><path fill="#ffce55" d="M213.09 384.358a.271.271 0 0 1-.158-.051l-4.022-2.9a.271.271 0 0 1 .317-.44l4.022 2.9a.271.271 0 0 1-.159.492Z" data-name="Path 71017"/><path fill="#ffce55" d="M205.432 378.839a.27.27 0 0 1-.158-.051l-2.461-1.775a.271.271 0 1 1 .317-.44l2.462 1.774a.271.271 0 0 1-.159.491Z" data-name="Path 71018"/><path fill="#233863" d="M207.042 383.976a.271.271 0 0 1-.158-.051l-6.233-4.492a.271.271 0 1 1 .317-.44l6.233 4.492a.271.271 0 0 1-.159.492Z" data-name="Path 71019"/></g><g data-name="Group 31228"><g data-name="Group 31226" transform="translate(188.208 347.129)"><rect width="18.415" height="24.687" fill="#fff" data-name="Rectangle 18471" rx="1.277" transform="rotate(21.04 3.763 24.84)"/><path fill="#233863" d="M17.293 30.263a.751.751 0 0 1-.269-.05L.484 23.85a.754.754 0 0 1-.433-.974L8.665.482a.755.755 0 0 1 .974-.433l16.54 6.363a.755.755 0 0 1 .433.974l-8.61 22.394a.756.756 0 0 1-.709.483ZM.832 23.112l16.427 6.319L25.83 7.15 9.402.831Z" data-name="Path 71020"/></g><g data-name="Group 31227" transform="translate(188.208 347.129)"><rect width="18.415" height="24.687" fill="#fff" data-name="Rectangle 18472" rx="1.277" transform="rotate(21.04 3.763 24.84)"/><path fill="#233863" d="M17.293 30.263a.751.751 0 0 1-.269-.05L.484 23.85a.754.754 0 0 1-.433-.974L8.665.482a.755.755 0 0 1 .974-.433l16.54 6.363a.755.755 0 0 1 .433.974l-8.61 22.394a.756.756 0 0 1-.709.483ZM.832 23.112l16.427 6.319L25.83 7.15 9.402.831Z" data-name="Path 71021"/></g><path fill="#233863" d="M200.627 355.865a.276.276 0 0 1-.1-.018l-2.844-1.094a.272.272 0 1 1 .2-.506l2.844 1.094a.271.271 0 0 1-.1.524Z" data-name="Path 71022"/><path fill="#233863" d="M208.173 363.869a.268.268 0 0 1-.1-.018l-12.455-4.791a.272.272 0 1 1 .2-.506l12.455 4.791a.271.271 0 0 1-.1.525Z" data-name="Path 71023"/><path fill="#ffce55" d="M207.065 366.75a.273.273 0 0 1-.1-.018l-4.95-1.9a.271.271 0 1 1 .195-.506l4.95 1.9a.271.271 0 0 1-.1.524Z" data-name="Path 71024"/><path fill="#ffce55" d="M197.641 363.125a.276.276 0 0 1-.1-.018l-3.03-1.166a.271.271 0 1 1 .195-.506l3.03 1.165a.271.271 0 0 1-.1.525Z" data-name="Path 71025"/><path fill="#233863" d="M200.704 368a.276.276 0 0 1-.1-.018l-7.671-2.951a.272.272 0 1 1 .2-.506l7.671 2.951a.271.271 0 0 1-.1.524Z" data-name="Path 71026"/></g><g data-name="Group 31248"><g data-name="Group 31231"><g data-name="Group 31230"><g data-name="Group 31229" transform="translate(124.792 339.772)"><rect width="21.557" height="29.131" fill="#ffce55" data-name="Rectangle 18473" rx="1.58" transform="rotate(18.852 3.973 29.375)"/><path fill="#233863" d="M20.425 35.118a.832.832 0 0 1-.269-.045L.567 28.385a.835.835 0 0 1-.521-1.061L9.182.567a.836.836 0 0 1 1.061-.521l19.589 6.688a.836.836 0 0 1 .521 1.061l-9.135 26.757a.838.838 0 0 1-.793.566ZM9.974.818a.025.025 0 0 0-.023.014L.818 27.587a.024.024 0 0 0 .014.027l19.589 6.689a.025.025 0 0 0 .027-.014l9.136-26.757a.024.024 0 0 0-.014-.027L9.981.817Z" data-name="Path 71027"/></g></g></g><g data-name="Group 31247"><g data-name="Group 31244"><g data-name="Group 31232"><path fill="#fff" d="m134.902 340.272 18.341 1.47a1.58 1.58 0 0 1 1.449 1.7l-2.073 25.887a1.581 1.581 0 0 1-1.702 1.45l-18.34-1.469a1.581 1.581 0 0 1-1.45-1.7l2.074-25.889a1.58 1.58 0 0 1 1.701-1.449Z" data-name="Rectangle 18474"/><path fill="#233863" d="M152.097 371.28h-.068l-20.634-1.652a.835.835 0 0 1-.766-.9l2.257-28.183a.837.837 0 0 1 .9-.766l20.634 1.653a.837.837 0 0 1 .766.9l-2.257 28.183a.835.835 0 0 1-.832.769Zm-18.377-30.694a.022.022 0 0 0-.022.02l-2.257 28.183a.024.024 0 0 0 .02.024l20.633 1.653c.013 0 .023-.01.024-.02l2.257-28.184a.022.022 0 0 0-.02-.024l-20.634-1.653Z" data-name="Path 71028"/></g><g data-name="Group 31243"><g data-name="Group 31233"><path fill="#fff" stroke="rgba(0,0,0,0)" d="m146.139 345.892 5.227.419" data-name="Line 5145"/><path fill="#ffce55" d="M151.366 346.582h-.022l-5.227-.419a.271.271 0 0 1-.249-.292.268.268 0 0 1 .292-.249l5.227.419a.271.271 0 0 1-.021.541Z" data-name="Path 71029"/></g><g data-name="Group 31234"><path fill="#fff" stroke="rgba(0,0,0,0)" d="m146.004 347.562 5.227.419" data-name="Line 5146"/><path fill="#ffce55" d="M151.231 348.253h-.02l-5.229-.42a.271.271 0 1 1 .044-.541l5.227.419a.271.271 0 0 1-.021.542Z" data-name="Path 71030"/></g><g data-name="Group 31235"><path fill="#fff" stroke="rgba(0,0,0,0)" d="m133.767 365.516 5.227.419" data-name="Line 5147"/><path fill="#ffce55" d="M138.994 366.205h-.022l-5.227-.419a.271.271 0 1 1 .043-.541l5.227.419a.271.271 0 0 1-.021.542Z" data-name="Path 71031"/></g><g data-name="Group 31242"><g data-name="Group 31236"><path fill="#fff" stroke="rgba(0,0,0,0)" d="m134.576 356.48 4.647.372" data-name="Line 5148"/><path fill="#233863" d="M139.223 357.124h-.022l-4.647-.372a.271.271 0 1 1 .043-.541l4.647.372a.271.271 0 0 1-.021.542Z" data-name="Path 71032"/></g><g data-name="Group 31237"><path fill="#fff" stroke="rgba(0,0,0,0)" d="m134.08 362.675 7.992.64" data-name="Line 5149"/><path fill="#233863" d="M142.073 363.586h-.022l-7.992-.64a.271.271 0 1 1 .044-.541l7.992.64a.271.271 0 0 1-.021.541Z" data-name="Path 71033"/></g><g data-name="Group 31238"><path fill="#fff" stroke="rgba(0,0,0,0)" d="m134.329 359.577 6.051.485" data-name="Line 5150"/><path fill="#233863" d="M140.379 360.333h-.022l-6.051-.484a.272.272 0 0 1-.249-.292.269.269 0 0 1 .292-.249l6.05.485a.271.271 0 0 1-.021.542Z" data-name="Path 71034"/></g><g data-name="Group 31239"><path fill="#fff" stroke="rgba(0,0,0,0)" d="m134.78 353.631 15.648 1.253" data-name="Line 5151"/><path fill="#233863" d="M150.428 355.156h-.022l-15.648-1.253a.272.272 0 0 1-.249-.292.267.267 0 0 1 .292-.249l15.647 1.253a.271.271 0 0 1-.021.542Z" data-name="Path 71035"/></g><g data-name="Group 31240"><path fill="#fff" stroke="rgba(0,0,0,0)" d="m142.31 360.192 7.477.599" data-name="Line 5152"/><path fill="#233863" d="M149.786 361.063h-.022l-7.477-.6a.272.272 0 0 1-.249-.292.268.268 0 0 1 .292-.248l7.477.6a.271.271 0 0 1-.021.541Z" data-name="Path 71036"/></g><g data-name="Group 31241"><path fill="#fff" stroke="rgba(0,0,0,0)" d="m140.959 356.95 9.589.809" data-name="Line 5153"/><path fill="#233863" d="M150.548 358.031h-.023l-9.589-.809a.271.271 0 0 1 .046-.541l9.589.809a.271.271 0 0 1-.023.542Z" data-name="Path 71037"/></g></g></g></g></g></g></g></g><path fill="#454f63" d="M150.431 403.246a.387.387 0 0 0-.549.545l2.785 2.784h-9.19a.387.387 0 0 0-.39.382.391.391 0 0 0 .39.39h9.19l-2.785 2.782a.394.394 0 0 0 0 .549.385.385 0 0 0 .549 0l3.447-3.441a.388.388 0 0 0 0-.545Zm0 0" data-name="Path 1651"/></g></g><g data-name="Group 47275"><path fill="none" d="M20 464h128v170H20z" data-name="Rectangle 23012"/><g data-name="Group 47274"><g data-name="Group 31195" transform="translate(39.464 552.544)"><g data-name="Group 31194"><rect width="71.336" height="51.881" fill="#1aa4c8" data-name="Rectangle 18458" rx="14.943" transform="rotate(-.12 437.263 -364.803)"/><path fill="#233863" d="M8.639 53.56a8.573 8.573 0 0 1-8.564-8.545L-.001 8.698A8.573 8.573 0 0 1 8.544.116l55.772-.117h.017a8.573 8.573 0 0 1 8.564 8.545l.076 36.317a8.586 8.586 0 0 1-8.545 8.581l-55.772.117Zm55.788-.9Zm-.093-51.1h-.014l-55.772.117a7.01 7.01 0 0 0-6.986 7.016l.075 36.317a7.01 7.01 0 0 0 7 6.986h.015l55.772-.117a7.024 7.024 0 0 0 6.986-7.016l-.076-36.317a7.009 7.009 0 0 0-7-6.984Z" data-name="Path 70961"/></g><rect width="71.336" height="51.881" fill="#233863" data-name="Rectangle 18459" opacity=".24" rx="14.943" transform="rotate(-.12 437.263 -364.803)"/></g><g data-name="Group 31205"><g data-name="Group 31197"><g data-name="Group 31196" transform="translate(73.292 505.745)"><rect width="35.353" height="47.393" fill="#fff" data-name="Rectangle 18460" rx="1.277" transform="rotate(43.793 16.023 41.683)"/><path fill="#233863" d="M26.004 59.687a1.437 1.437 0 0 1-1-.4L.446 35.743a1.447 1.447 0 0 1-.043-2.046L32.28.447a1.448 1.448 0 0 1 2.046-.043l24.558 23.545a1.448 1.448 0 0 1 .043 2.046L27.05 59.245a1.436 1.436 0 0 1-1.014.445Zm.081-1.531ZM1.611 34.693l24.391 23.384 31.717-33.082L33.328 1.61Z" data-name="Path 70962"/></g><path fill="#ffce55" d="M124.384 531.014a.521.521 0 0 1-.36-.145l-9.246-8.865a.521.521 0 0 1 .721-.752l9.246 8.864a.521.521 0 0 1-.361.9Z" data-name="Path 70963"/><path fill="#233863" d="M119.737 537.115a.521.521 0 0 1-.36-.145l-18.492-17.731a.521.521 0 0 1 .721-.752l18.492 17.729a.521.521 0 0 1-.361.9Z" data-name="Path 70964"/><path fill="#233863" d="M113.708 543.402a.521.521 0 0 1-.36-.145l-18.492-17.729a.521.521 0 0 1 .721-.752l18.492 17.729a.521.521 0 0 1-.361.9Z" data-name="Path 70965"/><path fill="#233863" d="M108.036 549.319a.519.519 0 0 1-.361-.145l-18.493-17.729a.521.521 0 0 1 .721-.751l18.493 17.729a.521.521 0 0 1-.36.9Z" data-name="Path 70966"/><path fill="#233863" d="M102.009 555.607a.519.519 0 0 1-.36-.145l-18.493-17.729a.521.521 0 0 1 .721-.752l18.493 17.729a.521.521 0 0 1-.361.9Z" data-name="Path 70967"/></g><g data-name="Group 31200"><g data-name="Group 31198" transform="translate(36 522.383)"><rect width="35.353" height="47.393" fill="#fff" data-name="Rectangle 18461" rx="1.277" transform="rotate(-22.221 35.802 5.497)"/><path fill="#233863" d="M18.868 58.401a1.45 1.45 0 0 1-1.339-.9L.109 14.859a1.445 1.445 0 0 1 .792-1.886L32.401.107a1.449 1.449 0 0 1 1.886.792l17.42 42.642a1.449 1.449 0 0 1-.792 1.886l-31.5 12.866a1.439 1.439 0 0 1-.547.108ZM1.601 14.376l17.33 42.431 31.281-12.779L32.879 1.597Zm49.013 30.331Zm-.3-.723Z" data-name="Path 70968"/></g><path fill="#233863" d="M64.23 539.394a.521.521 0 0 1-.2-1l5.416-2.213a.521.521 0 1 1 .394.965l-5.416 2.213a.523.523 0 0 1-.194.035Z" data-name="Path 70969"/><path fill="#233863" d="M49.225 554.932a.521.521 0 0 1-.2-1l23.715-9.688a.521.521 0 1 1 .394.964l-23.715 9.689a.524.524 0 0 1-.194.035Z" data-name="Path 70970"/><path fill="#ffce55" d="M65.754 554.58a.521.521 0 0 1-.2-1l9.427-3.85a.521.521 0 1 1 .394.964l-9.427 3.851a.515.515 0 0 1-.194.035Z" data-name="Path 70971"/><path fill="#ffce55" d="M51.465 560.421a.521.521 0 0 1-.2-1l5.77-2.357a.521.521 0 1 1 .394.964l-5.77 2.358a.513.513 0 0 1-.194.035Z" data-name="Path 70972"/><path fill="#233863" d="M53.326 566.815a.521.521 0 0 1-.2-1l14.607-5.967a.521.521 0 0 1 .394.965L53.52 566.78a.512.512 0 0 1-.194.035Z" data-name="Path 70973"/><g data-name="Group 31199" transform="translate(41.142 527.313)"><rect width="15.812" height="16.811" fill="#ffce55" data-name="Rectangle 18462" rx="2.004" transform="rotate(-23.44 15.701 2.772)"/><path fill="#233863" d="M7.419 22.096a1.568 1.568 0 0 1-1.436-.943L.127 7.641A1.565 1.565 0 0 1 .94 5.583L13.534.127a1.566 1.566 0 0 1 2.058.814l5.853 13.51a1.565 1.565 0 0 1-.813 2.057L8.038 21.964a1.561 1.561 0 0 1-.619.132Zm6.739-21.054a.522.522 0 0 0-.207.043L1.357 6.541a.523.523 0 0 0-.272.688l5.854 13.51a.523.523 0 0 0 .687.272l12.594-5.456a.524.524 0 0 0 .272-.688l-5.853-13.51a.523.523 0 0 0-.481-.316Zm6.269 14.99Z" data-name="Path 70974"/></g><path fill="#233863" d="M48.138 536.189a1.235 1.235 0 0 1-1.131-.743l-.686-1.584a.261.261 0 0 1 .478-.208l.686 1.584a.71.71 0 0 0 .934.37l.116-.049a.55.55 0 0 0 .285-.722l-1.737-4.01a.569.569 0 0 0-.746-.3l-.2.086a.6.6 0 0 0-.314.793l.043.1a.26.26 0 0 1-.477.209l-.043-.1a1.125 1.125 0 0 1 .584-1.479l.2-.086a1.092 1.092 0 0 1 1.431.566l1.737 4.01a1.073 1.073 0 0 1-.557 1.408l-.116.049a1.223 1.223 0 0 1-.487.106Z" data-name="Path 70975"/><path fill="#fff" d="M55.526 530.271a1.106 1.106 0 1 1-1.564-.015 1.106 1.106 0 0 1 1.564.015Z" data-name="Path 70976"/></g><g data-name="Group 31202"><g data-name="Group 31201" transform="translate(42.321 477)"><rect width="35.353" height="47.393" fill="#fff" data-name="Rectangle 18463" rx="1.277" transform="rotate(-23.003 35.647 5.785)"/><path fill="#233863" d="M19.446 58.591a1.449 1.449 0 0 1-1.331-.882l-18-42.4a1.449 1.449 0 0 1 .766-1.9L32.198.109a1.446 1.446 0 0 1 1.9.767l18 42.4a1.445 1.445 0 0 1-.767 1.9l-31.316 13.3a1.446 1.446 0 0 1-.569.115ZM1.598 14.806l17.91 42.186 31.1-13.2L32.699 1.606Z" data-name="Path 70977"/></g><path fill="#233863" d="M70.576 494.075a.521.521 0 0 1-.2-1l5.385-2.286a.521.521 0 0 1 .407.959l-5.385 2.286a.519.519 0 0 1-.207.041Z" data-name="Path 70978"/><path fill="#233863" d="M55.784 509.816a.521.521 0 0 1-.2-1l23.578-10.011a.521.521 0 1 1 .407.959l-23.581 10.011a.519.519 0 0 1-.204.041Z" data-name="Path 70979"/><path fill="#ffce55" d="M72.308 509.24a.521.521 0 0 1-.2-1l9.373-3.979a.521.521 0 1 1 .407.959l-9.373 3.979a.516.516 0 0 1-.207.041Z" data-name="Path 70980"/><path fill="#ffce55" d="M58.1 515.276a.521.521 0 0 1-.2-1l5.738-2.436a.521.521 0 0 1 .407.959l-5.738 2.435a.52.52 0 0 1-.207.042Z" data-name="Path 70981"/><path fill="#233863" d="M60.048 521.647a.521.521 0 0 1-.2-1l14.525-6.166a.521.521 0 0 1 .407.959l-14.525 6.166a.517.517 0 0 1-.207.041Z" data-name="Path 70982"/></g><g data-name="Group 31204"><g data-name="Group 31203" transform="translate(65.389 525.365)"><rect width="35.353" height="47.393" fill="#1aa4c8" data-name="Rectangle 18464" rx="1.277" transform="rotate(8.62 -.67 52.037)"/><path fill="#233863" d="M35.086 53.538a1.49 1.49 0 0 1-.22-.016l-33.637-5.1a1.446 1.446 0 0 1-1.213-1.648l6.909-45.54A1.447 1.447 0 0 1 8.572.02l33.638 5.1a1.448 1.448 0 0 1 1.213 1.647l-6.909 45.542a1.448 1.448 0 0 1-1.427 1.23ZM1.578 46.891l33.408 5.069 6.875-45.312L8.453 1.581Z" data-name="Path 70983"/></g><path fill="#fff" d="M84.644 534.273a.5.5 0 0 1-.079-.006l-6.457-.98a.52.52 0 1 1 .157-1.029l6.457.98a.521.521 0 0 1-.078 1.035Z" data-name="Path 70984"/><path fill="#233863" d="M101.407 543.812a.582.582 0 0 1-.079-.006l-7.415-1.125a.52.52 0 1 1 .157-1.029l7.415 1.125a.521.521 0 0 1-.078 1.035Z" data-name="Path 70985"/><path fill="#fff" d="M88.743 541.891a.508.508 0 0 1-.079-.006l-12.66-1.918a.521.521 0 1 1 .157-1.03l12.664 1.922a.521.521 0 0 1-.078 1.035Z" data-name="Path 70986"/><path fill="#233863" d="M89.205 550.77a.505.505 0 0 1-.079-.006l-14.429-2.189a.521.521 0 0 1 .157-1.03l14.429 2.189a.521.521 0 0 1-.078 1.036Z" data-name="Path 70987"/><path fill="#fff" d="M98.871 560.528a.516.516 0 0 1-.079-.006l-25.328-3.843a.52.52 0 1 1 .157-1.029l25.328 3.842a.521.521 0 0 1-.078 1.035Z" data-name="Path 70988"/><path fill="#fff" d="M86.478 567.462a.517.517 0 0 1-.079-.006l-14.243-2.161a.521.521 0 1 1 .157-1.029l14.243 2.16a.521.521 0 0 1-.078 1.036Z" data-name="Path 70989"/></g></g><g data-name="Group 31210"><g data-name="Group 31206"><path fill="#fff" d="m105.952 611.687-59.892.126a5.739 5.739 0 0 1-5.734-5.71l-.085-40.436a5.739 5.739 0 0 1 5.71-5.735l59.892-.126a5.739 5.739 0 0 1 5.735 5.71l.085 40.437a5.739 5.739 0 0 1-5.711 5.734Z" data-name="Path 70990"/><path fill="#233863" d="M46.048 612.335a6.26 6.26 0 0 1-6.243-6.23l-.085-40.437a6.26 6.26 0 0 1 6.23-6.256l59.892-.125h.013a6.25 6.25 0 0 1 6.243 6.23l.085 40.437a6.25 6.25 0 0 1-6.23 6.255l-59.892.127Zm59.807-52.007h-.011l-59.892.125a5.219 5.219 0 0 0-5.19 5.212l.085 40.437a5.218 5.218 0 0 0 5.2 5.191h.011l59.892-.126a5.207 5.207 0 0 0 5.191-5.212l-.085-40.437a5.208 5.208 0 0 0-5.202-5.191Z" data-name="Path 70991"/></g><g data-name="Group 31207"><path fill="#1aa4c8" d="m106.441 550.077-15.106.032a5.107 5.107 0 0 0-5.082 5.1l.015 7.229-38.262.08a7.8 7.8 0 0 0-7.766 7.8l.077 36.317a7.8 7.8 0 0 0 7.8 7.766l55.772-.117a7.805 7.805 0 0 0 7.766-7.8l-.074-35.572v-.744l-.031-15.011a5.108 5.108 0 0 0-5.109-5.08Z" data-name="Path 70992"/><path fill="#233863" d="M48.099 615.183a8.573 8.573 0 0 1-8.564-8.545l-.076-36.312a8.573 8.573 0 0 1 8.545-8.581l37.481-.079-.014-6.448a5.889 5.889 0 0 1 5.862-5.886l15.106-.031h.013a5.88 5.88 0 0 1 5.874 5.861l.108 51.328a8.573 8.573 0 0 1-8.545 8.581l-55.772.117Zm58.343-64.325-15.106.031a4.326 4.326 0 0 0-4.3 4.321l.015 7.229a.782.782 0 0 1-.78.783l-38.262.08a7.009 7.009 0 0 0-6.986 7.016l.077 36.317a7.009 7.009 0 0 0 7 6.986h.014l55.772-.117a7.009 7.009 0 0 0 6.986-7.016l-.108-51.328a4.316 4.316 0 0 0-4.311-4.3Zm0-.781Z" data-name="Path 70993"/></g><path fill="#fff" d="m105.916 555.869-13.516.029a4.57 4.57 0 0 0-4.547 4.567l.014 6.469-34.235.072a6.984 6.984 0 0 0-6.949 6.979l.068 32.5a6.984 6.984 0 0 0 6.978 6.95l49.9-.1a6.985 6.985 0 0 0 6.949-6.979l-.067-31.835v-.666l-.028-13.434a4.571 4.571 0 0 0-4.567-4.552Z" data-name="Path 70994" opacity=".12"/><path fill="#fff" d="M106.702 606.796a2.543 2.543 0 1 1-2.543-2.543 2.543 2.543 0 0 1 2.543 2.543Z" data-name="Path 70995"/><path fill="#fff" d="M108.48 563.808a.52.52 0 0 1-.521-.521v-6.922a2.211 2.211 0 0 0-2.3-2.107h-5.043a.521.521 0 1 1 0-1.042h5.043a3.252 3.252 0 0 1 3.339 3.148v6.922a.521.521 0 0 1-.518.522Z" data-name="Path 70996"/></g></g></g><path fill="none" d="M20 20h128v128H20z" data-name="Rectangle 23004"/><g fill="none" stroke="#000" stroke-width=".1" data-name="Rectangle 23005"><path stroke="none" d="M168 20h128v128H168z"/><path d="M168.05 20.05h127.9v127.9h-127.9z"/></g><g fill="none" stroke="#000" stroke-width=".1" data-name="Rectangle 23006"><path stroke="none" d="M316 20h128v128H316z"/><path d="M316.05 20.05h127.9v127.9h-127.9z"/></g><path fill="none" d="M532 20h48v48h-48zM464 88h48v48h-48zM532 88h48v48h-48z" data-name="Rectangle 23010"/><g fill="none" stroke="#000" stroke-width=".1" data-name="Rectangle 23010"><path stroke="none" d="M600 88h48v48h-48z"/><path d="M600.05 88.05h47.9v47.9h-47.9z"/></g><g data-name="Group 47271" transform="translate(12106 -3402)"><g data-name="Group 42979"><g fill="#1aa4c8" data-name="Group 1"><path d="M19.187 58.123H115.8a5.187 5.187 0 1 0 0-10.374H89.862a5.2 5.2 0 0 1-5.187-5.187 5.095 5.095 0 0 1 5.187-5.187h6.484a5.187 5.187 0 1 0 0-10.374H29.561a5.187 5.187 0 1 0 0 10.374h9.726a5.2 5.2 0 0 1 5.187 5.187 5.095 5.095 0 0 1-5.187 5.187h-20.1a5.187 5.187 0 0 0 0 10.374Z" data-name="Path 1" opacity=".15" style="isolation:isolate" transform="translate(-12091.406 3412)"/><path d="M142.972 91H76.187a5.187 5.187 0 0 0 0 10.374h66.785a5.187 5.187 0 1 0 0-10.374Z" data-name="Path 2" opacity=".15" style="isolation:isolate" transform="translate(-12111.448 3389.497)"/><path d="M108.072 129.484v-1.3a5.2 5.2 0 0 0-5.187-5.184h-81.7A5.2 5.2 0 0 0 16 128.187v1.3a5.2 5.2 0 0 0 5.187 5.187h81.7a5.2 5.2 0 0 0 5.185-5.19Z" data-name="Path 3" opacity=".15" style="isolation:isolate" transform="translate(-12092.109 3378.246)"/><path d="M118.83 157H35.187a5.187 5.187 0 1 0 0 10.374h83.643a5.187 5.187 0 1 0 0-10.374Z" data-name="Path 4" opacity=".15" style="isolation:isolate" transform="translate(-12097.032 3366.291)"/></g><g data-name="Group 3" transform="translate(-12080 3441.594)"><g data-name="Group 2"><path fill="#fff" d="M62.895 84.291H23.343a3.21 3.21 0 0 1-3.242-3.178V32.42a3.21 3.21 0 0 1 3.178-3.242h39.616a3.21 3.21 0 0 1 3.242 3.178v48.693a3.21 3.21 0 0 1-3.178 3.242Z" data-name="Path 5"/><path fill="#1aa4c8" d="M85.2 131.465H48.242A3.21 3.21 0 0 1 45 128.287V80.242A3.21 3.21 0 0 1 48.178 77H85.2a3.21 3.21 0 0 1 3.242 3.178v48.045a3.21 3.21 0 0 1-3.178 3.242Z" data-name="Path 6" opacity=".15" style="isolation:isolate" transform="translate(-22.306 -47.174)"/><path fill="none" stroke="#1aa4c8" stroke-linecap="round" stroke-linejoin="round" stroke-width="2" d="M27.233 84.291h-4.539a3.21 3.21 0 0 1-3.242-3.178V32.42a3.21 3.21 0 0 1 3.178-3.242h40.913a3.21 3.21 0 0 1 3.242 3.178v48.693a3.21 3.21 0 0 1-3.178 3.242H35.013" data-name="Path 7"/><path fill="none" stroke="#1aa4c8" stroke-linecap="round" stroke-linejoin="round" stroke-width="2" d="M30 84.406h0" data-name="Line 1"/><path fill="#fff" stroke="#1aa4c8" stroke-linecap="round" stroke-linejoin="round" stroke-width="2" d="M32.095 34.365h0a2.3 2.3 0 0 1-2.269-2.27v-6.484a2.3 2.3 0 0 1 2.269-2.269h0a2.3 2.3 0 0 1 2.269 2.269v6.484a2.3 2.3 0 0 1-2.269 2.27Z" data-name="Path 8"/><path fill="none" stroke="#1aa4c8" stroke-linecap="round" stroke-linejoin="round" stroke-width="2" d="M19.452 37.866h47.333" data-name="Line 2"/><path fill="none" stroke="#1aa4c8" stroke-linecap="round" stroke-linejoin="round" stroke-width="2" d="M0 0h29" data-name="Line 3" opacity=".5" style="isolation:isolate" transform="translate(27 55.406)"/><path fill="none" stroke="#1aa4c8" stroke-linecap="round" stroke-linejoin="round" stroke-width="2" d="M0 0h29" data-name="Line 4" opacity=".5" style="isolation:isolate" transform="translate(27 62.406)"/><path fill="none" stroke="#1aa4c8" stroke-linecap="round" stroke-linejoin="round" stroke-width="2" d="M0 0h11.023" data-name="Line 5" opacity=".5" style="isolation:isolate" transform="translate(27.233 70.804)"/></g><path fill="#1aa4c8" d="M120.091 117.707H79.242A3.21 3.21 0 0 1 76 114.529V63.242A3.21 3.21 0 0 1 79.178 60h40.912a3.21 3.21 0 0 1 3.242 3.178v51.287a3.21 3.21 0 0 1-3.178 3.242Z" data-name="Path 9" opacity=".5" style="isolation:isolate" transform="translate(-33.206 -41.196)"/><circle cx="2.5" cy="2.5" r="2.5" fill="none" stroke="#1aa4c8" stroke-linecap="round" stroke-linejoin="round" stroke-width="2" data-name="Ellipse 1" transform="translate(46 .406)"/><circle cx="2.5" cy="2.5" r="2.5" fill="none" stroke="#1aa4c8" stroke-linecap="round" stroke-linejoin="round" stroke-width="2" data-name="Ellipse 2" transform="translate(0 34.406)"/><ellipse cx="2.5" cy="3" fill="none" stroke="#1aa4c8" stroke-linecap="round" stroke-linejoin="round" stroke-width="2" data-name="Ellipse 3" rx="2.5" ry="3" transform="translate(101 76.406)"/><path fill="#fff" stroke="#1aa4c8" stroke-linecap="round" stroke-linejoin="round" stroke-width="2" d="M55.113 16.209h3.89a7.464 7.464 0 0 1 14.913 0h12.968a3.21 3.21 0 0 1 3.242 3.178v51.287a3.21 3.21 0 0 1-3.178 3.242H46.036a3.21 3.21 0 0 1-3.242-3.178V19.451a3.21 3.21 0 0 1 3.178-3.242h2.657" data-name="Path 10"/><path fill="none" stroke="#1aa4c8" stroke-linecap="round" stroke-linejoin="round" stroke-width="2" d="M53 16.406h0" data-name="Line 6"/><path fill="none" stroke="#1aa4c8" stroke-linecap="round" stroke-linejoin="round" stroke-width="2" d="M43 78.406h8" data-name="Line 7"/><path fill="none" stroke="#1aa4c8" stroke-linecap="round" stroke-linejoin="round" stroke-width="2" d="M54 78.406h1" data-name="Line 8"/><path fill="none" stroke="#1aa4c8" stroke-linecap="round" stroke-linejoin="round" stroke-width="2" d="M49 33.406h35" data-name="Line 9"/><path fill="none" stroke="#1aa4c8" stroke-linecap="round" stroke-linejoin="round" stroke-width="2" d="M48.63 58.161h25.936" data-name="Line 10"/><path fill="none" stroke="#1aa4c8" stroke-linecap="round" stroke-linejoin="round" stroke-width="2" d="M74.565 41.368h9.726" data-name="Line 11"/><path fill="none" stroke="#1aa4c8" stroke-linecap="round" stroke-linejoin="round" stroke-width="2" d="M74.565 49.732h5.187" data-name="Line 12"/><path fill="none" stroke="#1aa4c8" stroke-linecap="round" stroke-linejoin="round" stroke-width="2" d="M59.004 78.456H84.94a8.973 8.973 0 0 0 6.484-3.242" data-name="Path 12"/><ellipse cx="3" cy="2.5" fill="none" stroke="#1aa4c8" stroke-linecap="round" stroke-linejoin="round" stroke-width="2" data-name="Ellipse 4" rx="3" ry="2.5" transform="translate(64 13.406)"/><path fill="none" stroke="#1aa4c8" stroke-linecap="round" stroke-linejoin="round" stroke-width="2" d="M68.73 49.278H50.578a1.3 1.3 0 0 1-1.3-1.3v-5.829a1.3 1.3 0 0 1 1.3-1.3h18.155a1.3 1.3 0 0 1 1.3 1.3v5.836a1.3 1.3 0 0 1-1.303 1.293Z" data-name="Path 13"/><path fill="#1aa4c8" d="M141.89 55H138a3.21 3.21 0 0 1 3.242 3.178v51.935a3.21 3.21 0 0 1-3.178 3.242h3.827a3.21 3.21 0 0 0 3.242-3.178V58.242A3.21 3.21 0 0 0 141.954 55Z" data-name="Path 14" opacity=".15" style="isolation:isolate" transform="translate(-55.006 -39.438)"/></g></g><circle cx="12" cy="12" r="12" fill="#e5edf7" data-name="Ellipse 4036" transform="translate(-11997 3488)"/><path fill="none" stroke="#1aa4c8" stroke-linecap="round" stroke-width="2" d="M-11973.135 3492.995a12.137 12.137 0 0 1 .467 8.659" data-name="Path 74965"/><circle cx="12" cy="12" r="12" fill="#1aa4c8" data-name="Ellipse 4034" transform="translate(-11999 3486)"/><circle cx="10" cy="10" r="10" fill="#fff" data-name="Ellipse 4035" transform="translate(-11997 3488)"/><path fill="none" stroke="#1aa4c8" stroke-linecap="round" stroke-linejoin="round" stroke-width="2" d="m-11991.895 3498.344 3.5 3.5 7.258-7.258" data-name="Path 74964"/><path fill="none" stroke="#1aa4c8" stroke-linecap="round" stroke-width="2" d="m-11974.082 3504.486-.671 1.141" data-name="Path 74966"/></g><g data-name="Group 47272"><path fill="none" d="M464 20h48v48h-48z" data-name="Rectangle 23010"/><path fill="#ffc502" d="m505.731 56.251-16.054-27.292a1.926 1.926 0 0 0-.691-.691 1.946 1.946 0 0 0-2.663.691l-16.055 27.292a1.946 1.946 0 0 0 1.677 2.932h32.107a1.945 1.945 0 0 0 1.677-2.932Zm-15.941-2.77a2.22 2.22 0 0 1-.409.642 1.946 1.946 0 0 1-3.329-1.382 1.629 1.629 0 0 1 .156-.737 2.256 2.256 0 0 1 .409-.644 2.037 2.037 0 0 1 2.763 0 2.256 2.256 0 0 1 .409.644 1.829 1.829 0 0 1 0 1.477Zm.156-7.916a1.946 1.946 0 1 1-3.891 0v-5.837a1.946 1.946 0 0 1 3.891 0Z" data-name="Path 84651"/></g><g data-name="Group 47370" transform="translate(16 -694)"><circle cx="17" cy="17" r="17" fill="#1aa4c8" data-name="Ellipse 4019" transform="translate(523 721)"/><path fill="none" stroke="#fff" stroke-linecap="round" stroke-linejoin="round" stroke-width="4" d="m532.5 738 5.168 5.168 9.293-9.293" data-name="Path 84664"/></g><g data-name="Group 47507"><g data-name="Group 47506"><circle cx="17" cy="17" r="17" fill="#1aa4c8" data-name="Ellipse 4055" transform="translate(607 27)"/><path fill="#fff" fill-rule="evenodd" d="M625.687 50.131a1.688 1.688 0 1 1-3.374 0l.385-7.484a1.3 1.3 0 0 1 2.6 0Zm-3.567-12.466a1.88 1.88 0 1 1 1.88 1.88 1.88 1.88 0 0 1-1.88-1.88Z"/></g></g><g data-name="Component 115  1" transform="translate(471 95)"><rect width="34" height="34" fill="#1aa4c8" data-name="Rectangle 24143" opacity=".2" rx="6"/><g fill="none" stroke="#1aa4c8" stroke-linecap="round" stroke-linejoin="round" stroke-miterlimit="10" data-name="Group 47514"><path d="m23.8 25-5.44-4.08a1.686 1.686 0 0 0-1.92 0L11 25V10.6A1.6 1.6 0 0 1 12.6 9h9.6a1.6 1.6 0 0 1 1.6 1.6Z" data-name="Path 384"/><path d="M14.2 13.8h6.4" data-name="Path 385"/></g></g><g data-name="Group 47515"><g data-name="Group 47524"><path fill="#8dd5e8" d="M570.464 102.421a14.421 14.421 0 0 0-28.842 0v10.75h4.719v-10.226a9.7 9.7 0 0 1 19.4 0v10.226h4.72Z" data-name="Path 84766"/><path fill="#1aa4c8" d="M555.781 106.878v28.317h-1.049A15.731 15.731 0 0 1 539 119.464v-10.486a2.1 2.1 0 0 1 2.1-2.1Z" data-name="Path 84765"/><path fill="#44b8d6" d="M572.562 108.978v10.488a15.731 15.731 0 0 1-15.732 15.732h-1.049v-28.32h14.683a2.1 2.1 0 0 1 2.098 2.1Z" data-name="Path 84767"/><path fill="none" d="M572.564 106.878v2.1a2.1 2.1 0 0 0-2.1-2.1Z" data-name="Path 84768"/></g><path fill="#fff" d="m555.742 114.89 5.5 10h-11Z" data-name="Polygon 49"/><path fill="#ffc502" d="m563.755 125.175-7.218-12.278a.866.866 0 0 0-.311-.311.875.875 0 0 0-1.2.311l-7.22 12.278a.875.875 0 0 0 .754 1.322h14.441a.875.875 0 0 0 .754-1.319Zm-7.17-1.246a1 1 0 0 1-.184.289.875.875 0 0 1-1.5-.621.732.732 0 0 1 .07-.332 1.014 1.014 0 0 1 .184-.29.916.916 0 0 1 1.242 0 1.014 1.014 0 0 1 .184.29.823.823 0 0 1 0 .664Zm.07-3.56a.875.875 0 1 1-1.75 0v-2.626a.875.875 0 1 1 1.75 0Z" data-name="Path 84651"/></g><g data-name="Group 47525"><g data-name="Group 47507" transform="translate(2406.177 -5116)"><rect width="225.646" height="145.934" fill="#c9c9c9" data-name="Rectangle 24252" rx="10" transform="translate(-2223 5580)"/><path fill="#f3f3f3" d="M-2211.35 5591.037h201.733v123.86h-201.733z" data-name="Rectangle 24253"/><path fill="#e6e8e8" d="M-2125.016 5591.076h85.844l-86.334 123.821h-85.844Z" data-name="Path 84757"/><path fill="#e6e8e8" d="M-2033.04 5591.076h23.3l-86.334 123.821h-23.3Z" data-name="Path 84758"/><path fill="#d6d6d6" d="M-2137.769 5725.935h53.959l3.679 24.527h-61.317Z" data-name="Path 84759"/><path fill="#a8a8a8" d="M-2137.769 5725.935h53.96l1.84 12.263h-57.64Z" data-name="Path 84760"/><path fill="#c9c9c9" d="M-2148.806 5750.461h77.259a5.519 5.519 0 0 1 5.522 5.519h-88.3a5.519 5.519 0 0 1 5.519-5.519Z" data-name="Rectangle 24254"/></g><g data-name="Group 47526"><g data-name="Group 47524"><path fill="#8dd5e8" d="M320.691 519.392a24.528 24.528 0 0 0-49.055 0v18.284h8.027v-17.393a16.5 16.5 0 0 1 33 0v17.392h8.027Z" data-name="Path 84766"/><path fill="#1aa4c8" d="M295.719 526.973v48.163h-1.784a26.756 26.756 0 0 1-26.758-26.757v-17.838a3.566 3.566 0 0 1 3.568-3.568Z" data-name="Path 84765"/><path fill="#44b8d6" d="M324.26 530.541v17.839a26.756 26.756 0 0 1-26.757 26.757h-1.785v-48.164h24.974a3.566 3.566 0 0 1 3.568 3.568Z" data-name="Path 84767"/><path fill="none" d="M324.26 526.973v3.567a3.566 3.566 0 0 0-3.568-3.567Z" data-name="Path 84768"/></g><path fill="#fff" d="m295.773 544.139 10.1 18.314h-20.2Z" data-name="Polygon 49"/><path fill="#ffc502" d="m310.464 563.048-13.352-22.697a1.6 1.6 0 0 0-.574-.574 1.618 1.618 0 0 0-2.215.574l-13.352 22.697a1.618 1.618 0 0 0 1.395 2.438h26.7a1.618 1.618 0 0 0 1.395-2.438Zm-13.258-2.3a1.846 1.846 0 0 1-.34.534 1.618 1.618 0 0 1-2.766-1.153 1.354 1.354 0 0 1 .129-.613 1.876 1.876 0 0 1 .34-.536 1.694 1.694 0 0 1 2.3 0 1.876 1.876 0 0 1 .34.536 1.521 1.521 0 0 1 0 1.228Zm.129-6.584a1.618 1.618 0 0 1-3.236 0v-4.858a1.618 1.618 0 1 1 3.236 0Z" data-name="Path 84651"/></g></g></g></svg>